# xmcd
#
# Track frame offsets: 
#        300
#        22920
#        38927
#        56549
#        72180
#        96243
#        118281
#        140065
#        163200
#        188470
#        213892
#        231083
#
# Disc length: 3508 seconds
#
# Revision: 6
# Processed by: cddbd v1.5.2PL0 Copyright (c) Steve Scherf et al.
# Submitted via: ExactAudioCopy v1.0b1
#
DISCID=a90db00c
DTITLE=Aynsley Lister - Supakev 'n Pilchards
DYEAR=2002
DGENRE=Acoustic Blues
TTITLE0=Stop Breakin' Down
TTITLE1=Tougher Than Tough
TTITLE2=Strong Enough
TTITLE3=Mean Old World
TTITLE4=Mad Man Blues
TTITLE5=Kind Hearted Woman
TTITLE6=Come Go Home With Me
TTITLE7=Aeroplane Blues
TTITLE8=Empire State Express
TTITLE9=Crossroads
TTITLE10=Walkin' Blues
TTITLE11=As The Crow Flies
EXTD=
EXTT0=
EXTT1=
EXTT2=
EXTT3=
EXTT4=
EXTT5=
EXTT6=
EXTT7=
EXTT8=
EXTT9=
EXTT10=
EXTT11=
PLAYORDER=
